<?xml version="1.0" encoding="iso-8859-1"?>
<!-- Uploaded to: SVG Repo, www.svgrepo.com, Generator: SVG Repo Mixer Tools -->
<svg fill="#000000" height="800px" width="800px" version="1.1" id="Layer_1" xmlns="http://www.w3.org/2000/svg" xmlns:xlink="http://www.w3.org/1999/xlink" 
	 viewBox="0 0 512 512" xml:space="preserve">
<g>
	<g>
		<g>
			<path d="M459.843,110.244c-41.28-27.52-80-59.264-115.157-94.379l-3.349-3.349v115.477h128V116.58L459.843,110.244z"/>
			<path d="M298.664,0h-256v512H469.33V170.667H298.664V0z M309.181,198.251c8.341,8.32,8.341,21.845,0,30.165l-2.965,2.965
				c3.797,5.909,6.571,11.819,7.915,17.749c0.661,0.789,1.365,1.643,2.069,2.56l9.536-6.357h21.696
				c11.797,0,21.333,9.536,21.333,21.333c0,11.776-9.536,21.333-21.333,21.333h-8.789l-4.544,3.029
				c0.597,2.496,1.216,4.928,1.707,7.637h23.061l21.547,32.341c6.549,9.813,3.883,23.061-5.909,29.589
				c-3.648,2.432-7.744,3.584-11.819,3.584c-6.891,0-13.653-3.328-17.771-9.493l-8.32-12.501c-0.597,2.965-1.451,6.208-2.56,9.813
				h1.941l21.589,32.341c6.549,9.792,3.904,23.04-5.909,29.589c-3.627,2.432-7.765,3.584-11.819,3.584
				c-6.891,0-13.653-3.328-17.771-9.493l-8.917-13.355h-3.584c-2.539,2.987-4.971,5.973-8,8.981l-4.651,4.651
				c-11.264,11.264-26.091,16.917-40.917,16.917c-14.805,0-29.611-5.632-40.917-16.917l-4.629-4.651
				c-3.029-3.029-5.44-5.995-7.979-8.981h-3.605l-8.917,13.355c-4.139,6.165-10.88,9.493-17.771,9.493
				c-4.075,0-8.192-1.152-11.819-3.584c-9.813-6.549-12.459-19.797-5.909-29.589L176.018,352h1.92
				c-1.109-3.584-1.941-6.827-2.539-9.792l-8.32,12.48c-4.096,6.165-10.859,9.493-17.771,9.493c-4.053,0-8.149-1.152-11.797-3.584
				c-9.792-6.528-12.459-19.776-5.931-29.589l21.568-32.341h23.019c0.491-2.709,1.109-5.163,1.707-7.659L173.351,288h-8.789
				c-11.797,0-21.333-9.557-21.333-21.333c0-11.797,9.536-21.333,21.333-21.333h21.717l9.536,6.357
				c0.768-0.981,1.515-1.92,2.219-2.731c1.408-6.016,4.203-11.819,7.808-17.515l-3.029-3.029c-8.32-8.32-8.32-21.845,0-30.165
				c8.341-8.341,21.845-8.32,30.165-0.021l4.779,4.757c11.733-4.373,24.725-4.373,36.501,0.021l4.757-4.779
				C287.357,189.931,300.861,189.909,309.181,198.251z"/>
		</g>
	</g>
</g>
</svg>